HIERARCHY
ROOT hip
{
  OFFSET 47.9395 61.9578 -24.9257
  CHANNELS 6 Xposition Yposition Zposition Zrotation Xrotation Yrotation
  JOINT abdomen
  {
    OFFSET 0 20.6881 -0.73152
    CHANNELS 3 Zrotation Xrotation Yrotation
    JOINT chest
    {
      OFFSET 0 11.7043 -0.48768
      CHANNELS 3 Zrotation Xrotation Yrotation
      JOINT neck
      {
        OFFSET 0 22.1894 -2.19456
        CHANNELS 3 Zrotation Xrotation Yrotation
        JOINT head
        {
          OFFSET -0.24384 7.07133 1.2192
          CHANNELS 3 Zrotation Xrotation Yrotation
          JOINT leftEye
          {
            OFFSET 4.14528 8.04674 8.04672
            CHANNELS 3 Zrotation Xrotation Yrotation
            End Site
            {
              OFFSET 1 0 0
            }
          }
          JOINT rightEye
          {
            OFFSET -3.6576 8.04674 8.04672
            CHANNELS 3 Zrotation Xrotation Yrotation
            End Site
            {
              OFFSET 1 0 0
            }
          }
        }
      }
      JOINT rCollar
      {
        OFFSET -2.68224 19.2634 -4.8768
        CHANNELS 3 Zrotation Xrotation Yrotation
        JOINT rShldr
        {
          OFFSET -8.77824 -1.95073 1.46304
          CHANNELS 3 Zrotation Xrotation Yrotation
          JOINT rForeArm
          {
            OFFSET -28.1742 -1.7115 0.48768
            CHANNELS 3 Zrotation Xrotation Yrotation
            JOINT rHand
            {
              OFFSET -22.5879 0.773209 7.07136
              CHANNELS 3 Zrotation Xrotation Yrotation
              JOINT rThumb1
              {
                OFFSET -1.2192 -0.487915 3.41376
                CHANNELS 3 Zrotation Xrotation Yrotation
                JOINT rThumb2
                {
                  OFFSET -3.37035 -0.52449 3.41376
                  CHANNELS 3 Zrotation Xrotation Yrotation
                  End Site
                  {
                    OFFSET -1.78271 -1.18214 1.43049
                  }
                }
              }
              JOINT rIndex1
              {
                OFFSET -7.75947 0.938293 5.60832
                CHANNELS 3 Zrotation Xrotation Yrotation
                JOINT rIndex2
                {
                  OFFSET -2.54057 -0.884171 1.56538
                  CHANNELS 3 Zrotation Xrotation Yrotation
                  End Site
                  {
                    OFFSET -1.62519 -0.234802 1.16502
                  }
                }
              }
              JOINT rMid1
              {
                OFFSET -8.24714 1.18213 3.41376
                CHANNELS 3 Zrotation Xrotation Yrotation
                JOINT rMid2
                {
                  OFFSET -3.10165 -0.590103 1.0647
                  CHANNELS 3 Zrotation Xrotation Yrotation
                  End Site
                  {
                    OFFSET -2.48547 -0.328903 0.83742
                  }
                }
              }
              JOINT rRing1
              {
                OFFSET -8.82822 0.546677 1.51678
                CHANNELS 3 Zrotation Xrotation Yrotation
                JOINT rRing2
                {
                  OFFSET -2.60934 -0.819778 -0.0198488
                  CHANNELS 3 Zrotation Xrotation Yrotation
                  End Site
                  {
                    OFFSET -2.33842 -0.294052 0.168128
                  }
                }
              }
              JOINT rPinky1
              {
                OFFSET -8.27202 -0.0477905 -0.4584
                CHANNELS 3 Zrotation Xrotation Yrotation
                JOINT rPinky2
                {
                  OFFSET -1.82734 -0.647385 -0.700984
                  CHANNELS 3 Zrotation Xrotation Yrotation
                  End Site
                  {
                    OFFSET -1.69225 -0.51767 -0.607171
                  }
                }
              }
            }
          }
        }
      }
      JOINT lCollar
      {
        OFFSET 2.68224 19.2634 -4.8768
        CHANNELS 3 Zrotation Xrotation Yrotation
        JOINT lShldr
        {
          OFFSET 8.77824 -1.95073 1.46304
          CHANNELS 3 Zrotation Xrotation Yrotation
          JOINT lForeArm
          {
            OFFSET 28.1742 -1.7115 0.48768
            CHANNELS 3 Zrotation Xrotation Yrotation
            JOINT lHand
            {
              OFFSET 22.5879 0.773209 7.07136
              CHANNELS 3 Zrotation Xrotation Yrotation
              JOINT lThumb1
              {
                OFFSET 1.2192 -0.487915 3.41376
                CHANNELS 3 Zrotation Xrotation Yrotation
                JOINT lThumb2
                {
                  OFFSET 3.37035 -0.52449 3.41376
                  CHANNELS 3 Zrotation Xrotation Yrotation
                  End Site
                  {
                    OFFSET 1.78271 -1.18214 1.43049
                  }
                }
              }
              JOINT lIndex1
              {
                OFFSET 7.75947 0.938293 5.60832
                CHANNELS 3 Zrotation Xrotation Yrotation
                JOINT lIndex2
                {
                  OFFSET 2.54057 -0.884171 1.56538
                  CHANNELS 3 Zrotation Xrotation Yrotation
                  End Site
                  {
                    OFFSET 1.62519 -0.234802 1.16502
                  }
                }
              }
              JOINT lMid1
              {
                OFFSET 8.24714 1.18213 3.41376
                CHANNELS 3 Zrotation Xrotation Yrotation
                JOINT lMid2
                {
                  OFFSET 3.10165 -0.590103 1.0647
                  CHANNELS 3 Zrotation Xrotation Yrotation
                  End Site
                  {
                    OFFSET 2.48547 -0.328903 0.83742
                  }
                }
              }
              JOINT lRing1
              {
                OFFSET 8.82822 0.546677 1.51678
                CHANNELS 3 Zrotation Xrotation Yrotation
                JOINT lRing2
                {
                  OFFSET 2.60934 -0.819778 -0.0198488
                  CHANNELS 3 Zrotation Xrotation Yrotation
                  End Site
                  {
                    OFFSET 2.33842 -0.294052 0.168128
                  }
                }
              }
              JOINT lPinky1
              {
                OFFSET 8.27202 -0.0477905 -0.4584
                CHANNELS 3 Zrotation Xrotation Yrotation
                JOINT lPinky2
                {
                  OFFSET 1.82734 -0.647385 -0.700984
                  CHANNELS 3 Zrotation Xrotation Yrotation
                  End Site
                  {
                    OFFSET 1.69225 -0.51767 -0.607171
                  }
                }
              }
            }
          }
        }
      }
    }
  }
  JOINT rButtock
  {
    OFFSET -8.77824 4.35084 1.2192
    CHANNELS 3 Zrotation Xrotation Yrotation
    JOINT rThigh
    {
      OFFSET 0 -1.70687 -2.19456
      CHANNELS 3 Zrotation Xrotation Yrotation
      JOINT rShin
      {
        OFFSET 0 -36.8199 0.73152
        CHANNELS 3 Zrotation Xrotation Yrotation
        JOINT rFoot
        {
          OFFSET 0.73152 -45.1104 -5.12064
          CHANNELS 3 Zrotation Xrotation Yrotation
          End Site
          {
            OFFSET -1.1221 -3.69964 12.103
          }
        }
      }
    }
  }
  JOINT lButtock
  {
    OFFSET 8.77824 4.35084 1.2192
    CHANNELS 3 Zrotation Xrotation Yrotation
    JOINT lThigh
    {
      OFFSET 0 -1.70687 -2.19456
      CHANNELS 3 Zrotation Xrotation Yrotation
      JOINT lShin
      {
        OFFSET 0 -36.8199 0.73152
        CHANNELS 3 Zrotation Xrotation Yrotation
        JOINT lFoot
        {
          OFFSET -0.73152 -45.1104 -5.12064
          CHANNELS 3 Zrotation Xrotation Yrotation
          End Site
          {
            OFFSET 1.1221 -3.69964 12.103
          }
        }
      }
    }
  }
}
MOTION
Frames:	9
Frame Time:	0.00833333
52.0536 67.4235 -16.9599 1.97629 0.00853112 -0.0377083 -2.59956 0.000365787 -0.0702727 -0.716684 0.0122892 -0.124026 4.84974e-014 7.95139e-016 6.4605e-016 1.44917e-013 9.54166e-015 1.8341e-015 -0 0 0 -0 0 0 2.40028e-014 1.70831e-017 5.46658e-016 5.05824e-013 3.72721e-016 9.34288e-015 8.69062e-012 -2.60428e-012 3.49861e-014 9.96899e-011 2.67885e-012 1.5044e-012 2.3511e-010 1.58694e-013 3.3364e-012 4.06012e-010 2.70347e-013 5.75839e-012 2.35113e-010 1.58233e-013 3.3364e-012 7.73091 5.47488 0.417314 2.35109e-010 1.58332e-013 3.34276e-012 2.90554 0.965183 0.102902 2.35115e-010 1.5873e-013 3.34356e-012 10.2786 0.731801 0.0259123 2.35103e-010 1.61413e-013 3.35549e-012 2.22167 -0.733487 -0.20892 2.37071e-014 1.2424e-017 1.49089e-016 5.04307e-013 5.96354e-016 8.15017e-015 8.72476e-012 2.61402e-012 7.95139e-014 9.96455e-011 -2.5479e-012 1.4885e-012 2.35093e-010 1.3888e-013 3.34912e-012 4.06009e-010 2.35361e-013 5.78304e-012 2.3509e-010 1.39149e-013 3.35867e-012 -7.73091 5.47488 -0.417314 2.35094e-010 1.38354e-013 3.34594e-012 -2.90554 0.965183 -0.102902 2.35088e-010 1.38652e-013 3.34912e-012 -10.2786 0.731801 -0.0259123 2.351e-010 1.41535e-013 3.33958e-012 -2.22167 -0.733487 0.20892 -2.03217e-016 0 -3.88251e-019 -1.5019 -1.93106 0.0077861 -0.00871403 -2.07864 -0.0716479 -0.47156 3.99922 0.134348 2.03217e-016 0 3.88251e-019 -2.45151 -8.43833 0.261287 -0.00684986 9.70785 -0.175532 0.524357 -1.27991 -0.032953 
47.5596 63.8188 -23.5499 6.70958 -4.09333 -24.2245 -2.00291 5.53198 -0.889667 -0.990934 -2.74344 -0.369703 0.823279 0.658888 0.217852 -0.227532 -8.24609 0.112359 -0 0 0 -0 0 0 1.26257e-014 2.29207e-013 4.7918e-015 11.427 3.45747 14.7678 -14.5473 -11.7247 14.4099 0.0472544 4.8251 0.669466 1.47331e-010 6.33146e-010 1.42831e-009 2.73488e-010 1.0872e-009 2.46628e-009 1.47334e-010 6.33146e-010 1.42831e-009 7.73091 5.47488 0.417314 1.4733e-010 6.33147e-010 1.42831e-009 2.90554 0.965183 0.102902 1.47334e-010 6.33147e-010 1.42831e-009 10.2786 0.731801 0.0259123 1.47326e-010 6.3315e-010 1.42833e-009 2.22167 -0.733487 -0.20892 1.23723e-014 2.29204e-013 4.3919e-015 -11.7707 4.55075 -13.5462 14.8138 -12.0203 -14.4866 -8.2681e-005 0.202004 -0.0283892 -5.34205e-010 2.25414e-010 -9.8872e-010 -9.22885e-010 3.88767e-010 -1.70677e-009 -5.34206e-010 2.25418e-010 -9.8871e-010 -7.73091 5.47488 -0.417314 -5.34204e-010 2.25416e-010 -9.88723e-010 -2.90554 0.965183 -0.102902 -5.34209e-010 2.25418e-010 -9.88722e-010 -10.2786 0.731801 -0.0259123 -5.342e-010 2.2542e-010 -9.88732e-010 -2.22167 -0.733487 0.20892 -2.03217e-016 0 -3.88251e-019 -2.02338 -17.0178 -4.03489 0.115544 19.224 0.224417 -0.778079 -4.19979 -2.73419 2.03217e-016 0 3.88251e-019 0.439357 -21.6445 4.81844 -0.0171674 26.9668 -0.431963 0.536416 -7.12008 0.648915 
47.5931 63.7849 -23.552 8.43691 -5.9876 -50.0324 -1.19716 11.3751 -1.78084 -1.30657 -5.65724 -0.631198 1.68835 1.35447 0.448675 -0.432628 -16.9602 0.239713 -0 0 0 -0 0 0 -4.91777e-016 5.29725e-013 1.02685e-014 21.6504 6.34544 30.5297 -23.3976 -21.5869 31.4376 -0.0270844 9.92407 1.39321 5.99257e-011 1.3541e-009 3.07659e-009 1.44615e-010 2.32496e-009 5.31225e-009 5.99287e-011 1.3541e-009 3.07659e-009 7.73091 5.47488 0.417314 5.9925e-011 1.35411e-009 3.0766e-009 2.90554 0.965183 0.102902 5.99274e-011 1.3541e-009 3.0766e-009 10.2786 0.731801 0.0259123 5.99221e-011 1.35411e-009 3.07661e-009 2.22167 -0.733487 -0.20892 -7.0096e-016 5.29723e-013 9.86469e-015 -21.9461 8.50978 -28.111 23.7282 -22.1011 -31.6991 4.74625e-005 0.414267 -0.0582213 -1.43064e-009 4.82034e-010 -2.13929e-009 -2.47145e-009 8.31304e-010 -3.6929e-009 -1.43063e-009 4.82041e-010 -2.13928e-009 -7.73091 5.47488 -0.417314 -1.43064e-009 4.82039e-010 -2.13929e-009 -2.90554 0.965183 -0.102902 -1.43064e-009 4.82041e-010 -2.13929e-009 -10.2786 0.731801 -0.0259123 -1.43063e-009 4.82043e-010 -2.1393e-009 -2.22167 -0.733487 0.20892 -2.03217e-016 0 -3.88251e-019 -5.28004 -32.6884 -9.45163 -0.0603194 41.7382 0.685606 -2.01224 -12.8096 -5.89931 2.03217e-016 0 3.88251e-019 6.25501 -35.2446 10.9714 0.213799 45.2064 -0.864485 0.703664 -13.2914 1.3953 
47.6332 63.7484 -23.5375 8.82594 -4.04107 -72.8568 -0.317272 16.5807 -2.62526 -1.61103 -8.25415 -0.868786 2.4548 1.97655 0.653902 -0.577238 -24.7379 0.367297 -0 0 0 -0 0 0 -1.01285e-014 6.87587e-013 1.32821e-014 29.4878 7.66476 44.7258 -26.3115 -25.9531 48.4715 -0.205858 14.4673 2.06685 -2.82274e-011 1.89912e-009 4.27825e-009 8.44204e-012 3.26105e-009 7.38733e-009 -2.82244e-011 1.89912e-009 4.27824e-009 7.73091 5.47488 0.417314 -2.82279e-011 1.89913e-009 4.27825e-009 2.90554 0.965183 0.102902 -2.82269e-011 1.89912e-009 4.27826e-009 10.2786 0.731801 0.0259123 -2.82295e-011 1.89913e-009 4.27827e-009 2.22167 -0.733487 -0.20892 -1.02972e-014 6.87587e-013 1.28775e-014 -29.3705 10.6301 -41.3683 26.5308 -26.4837 -48.991 0.000352525 0.606012 -0.0851718 -2.0728e-009 6.75964e-010 -2.97286e-009 -3.58067e-009 1.16583e-009 -5.13187e-009 -2.0728e-009 6.75975e-010 -2.97285e-009 -7.73091 5.47488 -0.417314 -2.0728e-009 6.75972e-010 -2.97286e-009 -2.90554 0.965183 -0.102902 -2.0728e-009 6.75975e-010 -2.97286e-009 -10.2786 0.731801 -0.0259123 -2.0728e-009 6.75976e-010 -2.97287e-009 -2.22167 -0.733487 0.20892 -2.03217e-016 0 -3.88251e-019 -11.8045 -46.0592 -16.8287 -0.873574 61.8198 1.64955 -3.97162 -20.3784 -9.01721 2.03217e-016 0 3.88251e-019 15.0232 -46.6651 19.0101 0.922409 61.476 -1.69422 0.9977 -18.7899 2.11013 
47.6554 63.7178 -23.5544 9.59035 -0.493082 -88.3056 0.395873 20.2058 -3.26174 -1.83694 -10.0595 -1.03948 2.98531 2.41497 0.794806 -0.648463 -30.175 0.466662 -0 0 0 -0 0 0 -1.10636e-014 4.88811e-013 1.0138e-014 34.504 7.65368 54.62 -26.8005 -25.6931 60.3909 -0.396972 17.6286 2.55964 -1.1825e-010 2.0043e-009 4.36335e-009 -1.45979e-010 3.44293e-009 7.5352e-009 -1.18247e-010 2.0043e-009 4.36334e-009 7.73091 5.47488 0.417314 -1.18251e-010 2.0043e-009 4.36335e-009 2.90554 0.965183 0.102902 -1.1825e-010 2.0043e-009 4.36335e-009 10.2786 0.731801 0.0259123 -1.18251e-010 2.0043e-009 4.36336e-009 2.22167 -0.733487 -0.20892 -1.1201e-014 4.88812e-013 9.74045e-015 -33.8956 11.0452 -50.6741 26.9308 -26.1099 -61.0557 0.000683437 0.746464 -0.104915 -2.0793e-009 7.13173e-010 -3.01392e-009 -3.59153e-009 1.23033e-009 -5.20291e-009 -2.0793e-009 7.13184e-010 -3.01391e-009 -7.73091 5.47488 -0.417314 -2.0793e-009 7.13182e-010 -3.01392e-009 -2.90554 0.965183 -0.102902 -2.0793e-009 7.13185e-010 -3.01393e-009 -10.2786 0.731801 -0.0259123 -2.0793e-009 7.13185e-010 -3.01394e-009 -2.22167 -0.733487 0.20892 -2.03217e-016 0 -3.88251e-019 -19.8788 -54.6639 -24.9712 -3.11445 75.8202 3.94355 -5.88218 -25.5609 -11.4582 2.03217e-016 0 3.88251e-019 24.3081 -53.8655 27.2604 2.3874 72.8243 -3.213 1.29491 -22.6161 2.65594 
47.685 63.6833 -23.5713 10.168 1.27697 -94.2121 0.706409 21.628 -3.5407 -1.93053 -10.7555 -1.11186 3.19037 2.59701 0.845424 -0.659757 -32.341 0.502619 -0 0 0 -0 0 0 3.9932e-015 -4.17551e-013 -5.13501e-015 36.4377 7.40893 58.4712 -26.9365 -24.8206 64.7973 -0.487126 18.8585 2.75812 -2.3471e-010 1.37266e-009 2.52337e-009 -3.71985e-010 2.36182e-009 4.36067e-009 -2.34706e-010 1.37266e-009 2.52336e-009 7.73091 5.47488 0.417314 -2.3471e-010 1.37266e-009 2.52337e-009 2.90554 0.965183 0.102902 -2.3471e-010 1.37266e-009 2.52337e-009 10.2786 0.731801 0.0259123 -2.3471e-010 1.37266e-009 2.52338e-009 2.22167 -0.733487 -0.20892 3.8777e-015 -4.17552e-013 -5.5054e-015 -35.5776 10.9325 -54.3256 27.0462 -25.1675 -65.4876 0.00087041 0.816742 -0.114794 -9.70286e-010 4.88618e-010 -1.68534e-009 -1.67478e-009 8.43966e-010 -2.90996e-009 -9.70283e-010 4.88627e-010 -1.68533e-009 -7.73091 5.47488 -0.417314 -9.70286e-010 4.88625e-010 -1.68534e-009 -2.90554 0.965183 -0.102902 -9.70291e-010 4.88628e-010 -1.68535e-009 -10.2786 0.731801 -0.0259123 -9.70286e-010 4.88628e-010 -1.68536e-009 -2.22167 -0.733487 0.20892 -2.03217e-016 0 -3.88251e-019 -24.299 -57.7743 -29.3141 -6.05947 81.3208 6.8978 -6.76443 -27.5768 -12.484 2.03217e-016 0 3.88251e-019 28.946 -56.4585 31.3581 3.72606 77.2961 -4.56597 1.44136 -24.1078 2.89859 
47.7121 63.6492 -23.5875 10.0983 1.01107 -93.5185 0.685155 21.4798 -3.54316 -1.92402 -10.6594 -1.11257 3.16405 2.59591 0.831485 -0.639542 -32.1704 0.485749 -0 0 0 -0 0 0 3.02913e-014 -1.81941e-012 -2.89045e-014 36.2641 7.42432 58.0443 -26.9215 -24.9457 64.3326 -0.476063 18.7106 2.73408 -3.68919e-010 2.20476e-010 -6.7444e-010 -6.46932e-010 3.88457e-010 -1.15727e-009 -3.68913e-010 2.20475e-010 -6.74448e-010 7.73091 5.47488 0.417314 -3.68919e-010 2.20477e-010 -6.74437e-010 2.90554 0.965183 0.102902 -3.68918e-010 2.20478e-010 -6.74438e-010 10.2786 0.731801 0.0259123 -3.68918e-010 2.20481e-010 -6.7443e-010 2.22167 -0.733487 -0.20892 3.0191e-014 -1.81942e-012 -2.92338e-014 -35.3942 10.9417 -53.9716 27.0314 -25.2958 -65.0114 0.000906998 0.836819 -0.117616 9.24781e-010 7.91055e-011 6.09173e-010 1.60025e-009 1.39017e-010 1.05018e-009 9.24783e-010 7.91097e-011 6.09177e-010 -7.73091 5.47488 -0.417314 9.24781e-010 7.911e-011 6.09171e-010 -2.90554 0.965183 -0.102902 9.24777e-010 7.91109e-011 6.09165e-010 -10.2786 0.731801 -0.0259123 9.24783e-010 7.91118e-011 6.09151e-010 -2.22167 -0.733487 0.20892 -2.03217e-016 0 -3.88251e-019 -23.8174 -57.4935 -28.8617 -5.61454 80.7894 6.45222 -6.65756 -27.3866 -12.3487 2.03217e-016 0 3.88251e-019 28.403 -56.2846 30.8314 3.55605 76.8704 -4.39488 1.43941 -23.9343 2.9038 
47.7332 63.6169 -23.6048 9.77556 0.0404815 -90.1543 0.526773 20.7036 -3.43279 -1.87631 -10.249 -1.08419 3.04494 2.52049 0.791732 -0.60527 -31.0565 0.448693 -0 0 0 -0 0 0 5.49909e-014 -3.08621e-012 -5.04595e-014 35.2467 7.54367 55.903 -26.8485 -25.4697 61.9173 -0.424883 18.0154 2.62173 -4.72117e-010 -9.46251e-010 -3.83635e-009 -8.67793e-010 -1.61048e-009 -6.61372e-009 -4.7211e-010 -9.46252e-010 -3.83635e-009 7.73091 5.47488 0.417314 -4.72117e-010 -9.46251e-010 -3.83634e-009 2.90554 0.965183 0.102902 -4.72115e-010 -9.4625e-010 -3.83634e-009 10.2786 0.731801 0.0259123 -4.72116e-010 -9.46247e-010 -3.83634e-009 2.22167 -0.733487 -0.20892 5.48972e-014 -3.08621e-012 -5.07569e-014 -34.4649 11.0045 -52.013 26.9664 -25.8506 -62.5691 0.000871448 0.834197 -0.117247 2.77334e-009 -3.36626e-010 2.87384e-009 4.79478e-009 -5.76828e-010 4.95896e-009 2.77334e-009 -3.36626e-010 2.87384e-009 -7.73091 5.47488 -0.417314 2.77334e-009 -3.36624e-010 2.87384e-009 -2.90554 0.965183 -0.102902 2.77333e-009 -3.36625e-010 2.87383e-009 -10.2786 0.731801 -0.0259123 2.77334e-009 -3.36624e-010 2.87382e-009 -2.22167 -0.733487 0.20892 -2.03217e-016 0 -3.88251e-019 -21.3641 -55.8552 -26.4777 -3.87528 77.8433 4.70848 -6.15796 -26.3124 -11.7535 2.03217e-016 0 3.88251e-019 25.7786 -54.9943 28.4468 2.78718 74.4837 -3.61879 1.37681 -23.0958 2.81345 
47.7504 63.5875 -23.6209 9.60726 -0.468134 -88.0995 0.430167 20.2414 -3.37507 -1.84674 -10.0023 -1.06941 2.97159 2.47958 0.764916 -0.574976 -30.3926 0.423913 -0 0 0 -0 0 0 6.52524e-014 -3.58737e-012 -5.90887e-014 34.6489 7.59563 54.6088 -26.8108 -25.7254 60.4423 -0.395789 17.6034 2.55574 -4.95544e-010 -1.62153e-009 -5.56862e-009 -9.31543e-010 -2.76828e-009 -9.60376e-009 -4.95537e-010 -1.62153e-009 -5.56862e-009 7.73091 5.47488 0.417314 -4.95545e-010 -1.62153e-009 -5.56861e-009 2.90554 0.965183 0.102902 -4.95541e-010 -1.62153e-009 -5.56862e-009 10.2786 0.731801 0.0259123 -4.95544e-010 -1.62153e-009 -5.56861e-009 2.22167 -0.733487 -0.20892 6.51546e-014 -3.58737e-012 -5.93869e-014 -33.9034 11.0265 -50.8476 26.9341 -26.1201 -61.0719 0.000858018 0.83638 -0.117554 3.74282e-009 -5.79837e-010 4.11288e-009 6.47003e-009 -9.95883e-010 7.09779e-009 3.74282e-009 -5.79841e-010 4.11288e-009 -7.73091 5.47488 -0.417314 3.74282e-009 -5.79838e-010 4.11288e-009 -2.90554 0.965183 -0.102902 3.74282e-009 -5.79841e-010 4.11288e-009 -10.2786 0.731801 -0.0259123 3.74283e-009 -5.79839e-010 4.11286e-009 -2.22167 -0.733487 0.20892 -2.03217e-016 0 -3.88251e-019 -20.018 -54.8585 -25.1626 -3.19568 76.0969 4.02555 -5.87345 -25.6745 -11.407 2.03217e-016 0 3.88251e-019 24.287 -54.2153 27.0799 2.43609 73.0713 -3.26293 1.34523 -22.5921 2.77122 
